<?xml version="1.0" encoding="utf-8"?>
<!-- Generator: Adobe Illustrator 25.0.1, SVG Export Plug-In . SVG Version: 6.00 Build 0)  -->
<svg version="1.1" id="Capa_1" xmlns="http://www.w3.org/2000/svg" xmlns:xlink="http://www.w3.org/1999/xlink" x="0px" y="0px"
	 viewBox="0 0 333.8 435.2" style="enable-background:new 0 0 333.8 435.2;" xml:space="preserve">
<style type="text/css">
	.st0{clip-path:url(#SVGID_2_);}
	.st1{fill:#FFFFFF;}
</style>
<g>
	<defs>
		<rect id="SVGID_1_" x="-254.1" y="-39.8" width="841.9" height="595.3"/>
	</defs>
	<clipPath id="SVGID_2_">
		<use xlink:href="#SVGID_1_"  style="overflow:visible;"/>
	</clipPath>
	<g class="st0">
		<path class="st1" d="M74.9,361.1l-12.6-46.3c2.5-1.5,3.4-4.8,1.9-7.3s-4.8-3.4-7.3-1.9c-2.5,1.5-3.4,4.8-1.9,7.3
			c0.3,0.5,0.6,0.9,1,1.3l-8.6,19.9l-8.3-63.6l-13.2,26.6l-4.4-77.8l-9.2,10.4l11.9-49.7L13,161.1c1.5-3.1,0.4-6.8-2.4-8.6L51.1,9.9
			l68.1,72.6L140,65.8h57.1l19.2,17.6l70.5-75l38.5,143.1c-3.7,0.9-5.9,4.5-5.1,8.2c0.3,1.2,0.8,2.2,1.7,3.1l-8.8,18.8l12,46.3
			l-7.7-8.6l-4.4,77.8l-13.3-26.5l-8.3,63.6l-8.7-20.1c2.1-2.1,2.1-5.5,0-7.6c-2.1-2.1-5.5-2.1-7.6,0c-2.1,2.1-2.1,5.5,0,7.6
			c0.4,0.4,0.9,0.7,1.4,1L264,361.1l-11.4-28.5l-3.9,1.6l16.1,40.2l15.3-56l13.6,31.5l8.5-65.1l14.2,28.4l4.7-83.5l6.4,7.2l0.3,1.1
			l0.5-0.1l0.8,0.9l1.8-1.6l0.9-0.2l-0.1-0.5l0.5-0.5l-1-1.1L317.5,182l8.1-17.1c3.7,0.7,7.3-1.7,8-5.4c0.6-3.1-1-6.2-3.8-7.5L289,0
			l-72.8,77.5l-17.4-15.9h-60.3l-18.9,15.2L49.1,1.6L6.5,151.4c-3.8,0.2-6.7,3.4-6.5,7.1c0.2,3.8,3.4,6.7,7.1,6.5
			c1,0,1.9-0.3,2.8-0.7l9.7,16.3L6.1,236.9l2.1,0.5l1.6,1.4l8-9l4.8,83.5l14.2-28.4l8.5,65.1l13.6-31.5l15.3,56l16.1-40.2l-3.9-1.6
			L74.9,361.1z"/>
		<path class="st1" d="M93.4,187.9l2.2-2.4L95,185c-0.9-0.8-1.6-1.5-2.3-2.2l-1.2-1.2c-2.2-2.5-4.7-4.7-7.5-6.5
			c5-0.5,10.1-0.2,15.1,0.7c-0.1,1.7-0.1,3.4,0.2,5.1c0.8,4.9,3.4,8.6,7.5,10.5c3.7,1.9,8.1,2,11.9,0.3c0.9-0.4,1.8-1,2.6-1.6
			l3.9,9.5c-1.9-1.4-4-2.4-6.2-2.9c-1-0.1-2-0.3-3-0.4c-2.1-0.3-4.6-0.6-7.2-1.2l-0.8-0.2l-0.7,3.1l0.8,0.2c2.8,0.6,5.3,0.9,7.7,1.2
			c1,0.1,1.9,0.2,2.8,0.4c1.6,0.2,6.9,3.9,9.9,7.1l6.2,6.7l-12.2-29.4l-1.7,2c-3.2,3.5-8.3,4.4-12.5,2.2c-3.1-1.5-5-4.2-5.7-8.1
			c-0.3-1.9-0.3-3.8,0-5.6l0.3-1.5l-1.5-0.4c-0.5-0.1-13.4-3-23.9,0.2l-7.2,2.2l7.5,0.9l0.8,0.1c4,0.6,7.5,4.2,10.6,7.4l0,0l0.6-0.6
			l-0.6,0.6l1.2,1.2c0.7,0.7,1.5,1.5,2.4,2.3L93.4,187.9z"/>
		<path class="st1" d="M104.9,178.5c0,4.4,3.5,7.9,7.9,7.9s7.9-3.5,7.9-7.9c0-4.4-3.5-7.9-7.9-7.9l0,0
			C108.5,170.6,104.9,174.1,104.9,178.5"/>
		<path class="st1" d="M247.8,183.8c3.1-3.2,6.6-6.8,10.7-7.4l0.8-0.1l7.5-0.9l-7.2-2.2c-10.4-3.2-23.3-0.4-23.9-0.2l-1.5,0.4
			l0.3,1.5c0.3,1.9,0.3,3.8,0,5.6c-0.6,3.9-2.5,6.6-5.7,8.1c-4.2,2.2-9.3,1.3-12.5-2.2l-1.7-2l-12.2,29.4l6.2-6.7
			c3-3.2,8.3-6.9,9.9-7.1c0.9-0.1,1.8-0.2,2.9-0.4c2.5-0.3,5.1-0.7,7.5-1.2l0.8-0.2l-0.7-3.1l-0.8,0.2c-2.7,0.6-5.1,0.9-7.3,1.2
			c-1,0.1-2,0.2-3,0.4c-2.3,0.5-4.4,1.5-6.2,2.9l3.9-9.5c0.8,0.6,1.7,1.2,2.6,1.6c3.8,1.7,8.2,1.6,11.9-0.3
			c4.1-1.9,6.7-5.6,7.5-10.5c0.3-1.7,0.3-3.4,0.2-5.1c5-0.9,10.1-1.1,15.1-0.7c-2.8,1.8-5.3,4-7.5,6.5l-1.2,1.2
			c-0.6,0.6-1.4,1.4-2.3,2.2l-0.6,0.6l2.2,2.4l0.6-0.6c0.9-0.8,1.7-1.6,2.4-2.3L247.8,183.8z"/>
		<path class="st1" d="M216.2,178.5c0,4.4,3.5,7.9,7.9,7.9s7.9-3.5,7.9-7.9c0-4.4-3.5-7.9-7.9-7.9l0,0
			C219.7,170.6,216.2,174.1,216.2,178.5"/>
		<path class="st1" d="M275.7,44.6l-7.4,65.7c-3.3,1.1-5,4.7-3.9,7.9c0.9,2.5,3.2,4.3,5.9,4.3c0.3,0,0.7,0,1-0.1l14.4,15l3-2.8
			L275,120.3c0.2-0.2,0.4-0.5,0.5-0.7H295v-4.1h-18.5c-0.2-2.4-1.8-4.5-4.1-5.3l0.1-0.8h14.2v-4.1H273l1.3-12h13.2v-4.1h-12.8l1-8.8
			h8.6v-4.1h-8.2l1.1-10h14.9v-4.1h-14.4l0.8-6.9H289v-4h-10l0.7-6.3L275.7,44.6z"/>
		<path class="st1" d="M258.4,273.1l24.4-45.2l-10.4-17.6c2.8-2,3.4-5.9,1.4-8.7c-0.5-0.6-1-1.2-1.7-1.6l10.9-18.4l-57.6-67.4
			l-36.8,40.5l7.9,27.1l-26.2,33.8c-0.4-0.1-0.9-0.1-1.3-0.1h-0.2c-0.4,0-0.9,0-1.3,0.1l-26.2-33.8l7.9-27.1l-36.8-40.5l-57.6,67.4
			L65.5,200c-2.9,1.8-3.8,5.7-2,8.6c0.4,0.7,1,1.3,1.6,1.7l-10.4,17.6l24.4,45.2l3.6-1.9L59.4,228l9.8-16.5c3.4-0.2,6.1-3.1,5.9-6.6
			c-0.1-3-2.4-5.5-5.4-5.9L59.6,182l52.7-61.7l32.1,35.4l-7.8,26.9l27.2,35c-2.2,2.7-1.9,6.6,0.8,8.8c1.1,0.9,2.6,1.5,4,1.5h0.2
			c3.5,0,6.3-2.8,6.3-6.3c0-1.5-0.5-2.9-1.5-4l27.2-35l-7.8-26.9l32.1-35.4L278,182l-10.1,17.1c-3.4,0.4-5.8,3.6-5.4,7
			c0.4,3,2.9,5.3,5.9,5.4l9.8,16.5l-23.3,43.2L258.4,273.1z"/>
		<polygon class="st1" points="203.6,228 203.6,263.7 214.9,283 218.4,280.9 207.7,262.6 207.7,228 		"/>
		<path class="st1" d="M235.6,365.2l-63.2,58.5c-2.2-1.5-5-1.4-7.2,0.1l-63.4-58.6l-2.8,3l63.8,59c-0.2,0.6-0.2,1.1-0.2,1.7
			c0.1,3.5,3.1,6.2,6.5,6c3.3-0.1,5.9-2.7,6-6c0-0.7-0.1-1.3-0.3-1.9l63.5-58.8L235.6,365.2z"/>
		<path class="st1" d="M51.8,137.4l14.4-15c3.4,0.5,6.6-1.8,7.2-5.2c0.5-3-1.3-5.9-4.2-6.9l-7.4-65.7l-4,0.5l0.7,6.3h-10v4.1h10.5
			l0.8,6.9H45.3v4.1h14.9l1.1,10h-8.2v4.1h8.6l1,8.8H49.9v4.1h13.2l1.4,12H50.8v4.1H65l0.1,0.8c-2.3,0.8-3.9,2.9-4.1,5.3H42.6v4.1
			h19.4c0.2,0.2,0.3,0.5,0.5,0.7l-13.5,14.2L51.8,137.4z"/>
		<polygon class="st1" points="133.8,228 129.8,228 129.8,262.6 119.1,280.9 122.6,283 133.8,263.7 		"/>
		<path class="st1" d="M171.8,327.6l28.9-23.5v-23.2l-9.2-6.5H146l-9.2,6.5v23.2l28.9,23.5v11.8h-33l-23.3-25.6l-3,2.8l24.5,26.9
			h75.7l24.5-26.9l-3-2.8l-23.3,25.6h-33L171.8,327.6z M165.7,301.1h-1.9c-0.9-3.3-4.3-5.3-7.7-4.4s-5.3,4.3-4.4,7.7
			s4.3,5.3,7.7,4.4c1.9-0.5,3.4-1.8,4.1-3.6h2.2v17.2l-24.8-20.2V283l6.4-4.5h42.9l6.4,4.5v19.1l-24.8,20.2v-17.2h2.2
			c1.4,3.2,5,4.7,8.2,3.3s4.7-5,3.3-8.2s-5-4.7-8.2-3.3c-1.8,0.8-3.1,2.3-3.6,4.1L165.7,301.1L165.7,301.1z"/>
	</g>
</g>
</svg>
